<?xml version="1.0" encoding="UTF-8" standalone="no"?>
<svg width="261px" height="312px" viewBox="0 0 261 312" version="1.1" xmlns="http://www.w3.org/2000/svg" xmlns:xlink="http://www.w3.org/1999/xlink">
    <!-- Generator: Sketch 3.6.1 (26313) - http://www.bohemiancoding.com/sketch -->
    <title>Untitled</title>
    <desc>Created with Sketch.</desc>
    <defs>
        <filter x="-50%" y="-50%" width="200%" height="200%" filterUnits="objectBoundingBox" id="filter-1">
            <feOffset dx="5" dy="5" in="SourceAlpha" result="shadowOffsetOuter1"></feOffset>
            <feGaussianBlur stdDeviation="4" in="shadowOffsetOuter1" result="shadowBlurOuter1"></feGaussianBlur>
            <feColorMatrix values="0 0 0 0 0   0 0 0 0 0   0 0 0 0 0  0 0 0 0.35 0" in="shadowBlurOuter1" type="matrix" result="shadowMatrixOuter1"></feColorMatrix>
            <feMerge>
                <feMergeNode in="shadowMatrixOuter1"></feMergeNode>
                <feMergeNode in="SourceGraphic"></feMergeNode>
            </feMerge>
        </filter>
        <filter x="-50%" y="-50%" width="200%" height="200%" filterUnits="objectBoundingBox" id="filter-2">
            <feOffset dx="5" dy="5" in="SourceAlpha" result="shadowOffsetOuter1"></feOffset>
            <feGaussianBlur stdDeviation="4" in="shadowOffsetOuter1" result="shadowBlurOuter1"></feGaussianBlur>
            <feColorMatrix values="0 0 0 0 0   0 0 0 0 0   0 0 0 0 0  0 0 0 0.35 0" in="shadowBlurOuter1" type="matrix" result="shadowMatrixOuter1"></feColorMatrix>
            <feMerge>
                <feMergeNode in="shadowMatrixOuter1"></feMergeNode>
                <feMergeNode in="SourceGraphic"></feMergeNode>
            </feMerge>
        </filter>
        <filter x="-50%" y="-50%" width="200%" height="200%" filterUnits="objectBoundingBox" id="filter-3">
            <feOffset dx="5" dy="5" in="SourceAlpha" result="shadowOffsetOuter1"></feOffset>
            <feGaussianBlur stdDeviation="5" in="shadowOffsetOuter1" result="shadowBlurOuter1"></feGaussianBlur>
            <feColorMatrix values="0 0 0 0 0   0 0 0 0 0   0 0 0 0 0  0 0 0 0.35 0" in="shadowBlurOuter1" type="matrix" result="shadowMatrixOuter1"></feColorMatrix>
            <feMerge>
                <feMergeNode in="shadowMatrixOuter1"></feMergeNode>
                <feMergeNode in="SourceGraphic"></feMergeNode>
            </feMerge>
        </filter>
    </defs>
    <g id="Page-1" stroke="none" stroke-width="1" fill="none" fill-rule="evenodd">
        <path d="M68.4034485,137.332866 C70.3397015,127.01894 80.2757741,117.087205 90.5843594,115.151955 L196.364272,95.2936893 C206.678198,93.3574363 213.928814,100.212167 212.556781,110.620821 L197.722803,223.155775 C196.351753,233.556969 186.815923,243.099276 176.407269,244.471309 L63.8723151,259.305287 C53.4711209,260.676337 46.6099328,253.421364 48.5451832,243.112778 L68.4034485,137.332866 Z" id="Rectangle-1-Copy-2" fill="#9B9B9B" style="mix-blend-mode: overlay;" filter="url(#filter-1)" transform="translate(130.470964, 177.219056) rotate(45.000000) translate(-130.470964, -177.219056) "></path>
        <path d="M68.4034485,111.332866 C70.3397015,101.01894 80.2757741,91.087205 90.5843594,89.1519546 L196.364272,69.2936893 C206.678198,67.3574363 213.928814,74.2121675 212.556781,84.6208211 L197.722803,197.155775 C196.351753,207.556969 186.815923,217.099276 176.407269,218.471309 L63.8723151,233.305287 C53.4711209,234.676337 46.6099328,227.421364 48.5451832,217.112778 L68.4034485,111.332866 Z" id="Rectangle-1-Copy" fill="#8B572A" opacity="0.850000024" filter="url(#filter-2)" transform="translate(130.470964, 151.219056) rotate(45.000000) translate(-130.470964, -151.219056) "></path>
        <path d="M68.4034485,84.3328655 C70.3397015,74.0189397 80.2757741,64.087205 90.5843594,62.1519546 L196.364272,42.2936893 C206.678198,40.3574363 213.928814,47.2121675 212.556781,57.6208211 L197.722803,170.155775 C196.351753,180.556969 186.815923,190.099276 176.407269,191.471309 L63.8723151,206.305287 C53.4711209,207.676337 46.6099328,200.421364 48.5451832,190.112778 L68.4034485,84.3328655 Z" id="Rectangle-1" fill-opacity="0.850000024" fill="#F6A623" opacity="0.99000001" filter="url(#filter-3)" transform="translate(130.470964, 124.219056) rotate(45.000000) translate(-130.470964, -124.219056) "></path>
        <g id="coffeescript-original" transform="translate(84.000000, 101.000000)" fill="#7A4C02">
            <g id="Group">
                <path d="M35.8354839,7.56831683 C44.516129,7.08316832 46.9645161,3.44455446 57.1290323,2.81386139 C62.1,2.52277228 65.2903226,3.2019802 65.5870968,4.31782178 C65.883871,5.38514851 63.4354839,6.11287129 60.3935484,6.25841584 C56.2387097,6.54950495 54.4580645,5.53069307 54.1612903,4.60891089 C51.1193548,4.8029703 50.6,5.67623762 50.7483871,6.30693069 C51.0451613,7.47128713 54.8290323,8.58712871 61.2096774,8.1990099 C68.4806452,7.81089109 70.8548387,5.96732673 70.2612903,4.07524752 C69.5193548,1.64950495 63.9548387,-0.388118812 53.9387097,0.194059406 C41.1032258,0.97029703 41.1774194,4.8029703 32.4967742,5.28811881 C28.9354839,5.48217822 26.9322581,4.94851485 26.5612903,4.02673267 C26.3387097,3.1049505 28.0451613,2.66831683 30.1225806,2.57128713 C32.0516129,2.47425743 34.3516129,2.66831683 35.4645161,3.05643564 C36.2806452,2.76534653 36.5774194,2.52277228 36.4290323,2.18316832 C36.1322581,1.30990099 33.4612903,0.921782178 30.1225806,1.11584158 C23.6677419,1.5039604 23.6677419,3.3960396 23.8903226,4.22079208 C24.7064516,6.5009901 29.6774194,7.95643564 35.8354839,7.56831683 L35.8354839,7.56831683 Z M79.3129032,17.1742574 C71.3,18.3871287 61.0612903,19.1633663 48.7451613,19.1633663 C36.2064516,19.1633663 25.9677419,18.290099 17.9548387,17.1742574 C10.8322581,15.9613861 6.97419355,14.6514851 5.63870968,13.2930693 C6.30645161,16.349505 7.49354839,19.3089109 9.0516129,22.1227723 C7.27096774,22.850495 5.56451613,23.8207921 4.08064516,25.0336634 C1.26129032,27.3623762 1.94566585e-14,30.0792079 0.222580645,32.7475248 C0.44516129,35.4158416 2.4483871,37.5990099 5.63870968,39.2970297 C8.97741935,40.9950495 12.5387097,41.480198 16.6193548,40.9950495 C18.1774194,40.849505 19.9580645,40.2673267 21.516129,39.9762376 C18.1774194,39.9762376 15.3580645,39.2485149 12.5387097,37.7930693 C9.49677419,36.3376238 7.34516129,34.2514851 6.9,31.7772277 C6.15806452,29.4485149 6.9,27.2653465 8.90322581,25.3732673 C9.3483871,24.9851485 9.79354839,24.6940594 10.3129032,24.4029703 C11.4258065,26.2465347 12.7612903,27.9930693 14.1709677,29.6910891 C17.2129032,32.7475248 20.3290323,35.4158416 23.3709677,38.2782178 C24.7064516,39.9762376 25.5967742,41.6742574 26.1903226,43.3237624 C28.1935484,45.1673267 31.0870968,46.4772277 34.6483871,47.1564356 C39.0258065,48.1752475 43.6258065,48.5633663 48.3,48.5633663 L48.8193548,48.5633663 C53.4935484,48.5633663 58.3903226,48.0782178 62.916129,47.1079208 C66.2548387,46.380198 69.0741935,45.1673267 71.1516129,43.2267327 L71.3741935,43.2267327 C71.8935484,41.7712871 72.7096774,39.9277228 73.9709677,38.229703 C77.0129032,35.3673267 80.1290323,32.6990099 83.1709677,29.6425743 C87.2516129,24.7910891 90.0709677,19.260396 91.6290323,13.3415842 C90.0709677,14.7970297 86.2129032,16.1554455 79.3129032,17.1742574 L79.3129032,17.1742574 Z M17.9548387,12.9534653 C25.9677419,14.2633663 36.2064516,14.9425743 48.5225806,14.9425743 C61.0612903,14.9425743 71.0774194,14.2148515 79.0903226,12.9534653 C87.5483871,11.6435644 91.6290323,9.8970297 91.6290323,8.2960396 C91.6290323,7.08316832 89.7741935,5.96732673 86.4354839,5.09405941 C87.1774194,5.43366337 87.7709677,5.96732673 87.7709677,6.54950495 C87.7709677,8.24752475 83.9129032,9.60594059 76.1967742,10.7217822 C69.0741935,11.7405941 59.8741935,12.4683168 48.7451613,12.4683168 C37.9870968,12.4683168 28.416129,11.7405941 21.516129,10.770297 C14.0967742,9.55742574 10.1645161,8.24752475 10.1645161,6.5980198 C10.1645161,5.87029703 10.683871,5.28811881 12.1677419,4.60891089 C7.49354839,5.82178218 5.04516129,6.79207921 5.04516129,8.2960396 C5.26774194,9.99405941 9.42258065,11.6920792 17.9548387,12.9534653 L17.9548387,12.9534653 Z" id="Shape"></path>
            </g>
        </g>
    </g>
</svg>